{"nbformat":4,"nbformat_minor":0,"metadata":{"colab":{"name":"DeepFaceLab_Colab_V4.ipynb","provenance":[{"file_id":"https://github.com/dream80/DeepFaceLab_Colab/blob/master/DeepFaceLab_Colab_V4.ipynb","timestamp":1617453895975}],"collapsed_sections":[],"toc_visible":true},"kernelspec":{"name":"python3","display_name":"Python 3"},"accelerator":"GPU"},"cells":[{"cell_type":"code","metadata":{"id":"AmGMbWZef1XI","cellView":"form","colab":{"base_uri":"https://localhost:8080/"},"executionInfo":{"status":"ok","timestamp":1617456837531,"user_tz":-540,"elapsed":594,"user":{"displayName":"王思雨","photoUrl":"https://lh3.googleusercontent.com/a-/AOh14GgdKvMq1fEVrSVYMjY_lkMRC-UmX30N77KQ_6cd=s64","userId":"09556943149130240731"}},"outputId":"58b62360-6222-4dbe-b2e9-e4d112be1429"},"source":["#@title 查看分配到的设备\n","# 查看设备，是K80还是T4,如果是K80...！\n","! /opt/bin/nvidia-smi"],"execution_count":null,"outputs":[{"output_type":"stream","text":["y\n","Sat Apr  3 13:33:57 2021       \n","+-----------------------------------------------------------------------------+\n","| NVIDIA-SMI 460.32.03    Driver Version: 460.32.03    CUDA Version: 11.2     |\n","|-------------------------------+----------------------+----------------------+\n","| GPU  Name        Persistence-M| Bus-Id        Disp.A | Volatile Uncorr. ECC |\n","| Fan  Temp  Perf  Pwr:Usage/Cap|         Memory-Usage | GPU-Util  Compute M. |\n","|                               |                      |               MIG M. |\n","|===============================+======================+======================|\n","|   0  Tesla P100-PCIE...  Off  | 00000000:00:04.0 Off |                    0 |\n","| N/A   41C    P0    27W / 250W |      0MiB / 16280MiB |      0%      Default |\n","|                               |                      |                  N/A |\n","+-------------------------------+----------------------+----------------------+\n","                                                                               \n","+-----------------------------------------------------------------------------+\n","| Processes:                                                                  |\n","|  GPU   GI   CI        PID   Type   Process name                  GPU Memory |\n","|        ID   ID                                                   Usage      |\n","|=============================================================================|\n","|  No running processes found                                                 |\n","+-----------------------------------------------------------------------------+\n"],"name":"stdout"}]},{"cell_type":"markdown","metadata":{"id":"ldpC3PjRrYYh"},"source":["# 第一步 准备好workspace\n","这一步你可以选着两种方式\n","1. 使用默认的workspace，你无需自己上传，仅用于熟悉操作。\n","2. 通过Google Drive （谷歌云盘）上传自己的workspace到指定目录。\n","  "]},{"cell_type":"code","metadata":{"id":"D7toZxhT4J9W","cellView":"form","colab":{"base_uri":"https://localhost:8080/"},"executionInfo":{"status":"ok","timestamp":1617453983737,"user_tz":-540,"elapsed":20707,"user":{"displayName":"王思雨","photoUrl":"https://lh3.googleusercontent.com/a-/AOh14GgdKvMq1fEVrSVYMjY_lkMRC-UmX30N77KQ_6cd=s64","userId":"09556943149130240731"}},"outputId":"1d97f30e-7be4-41de-ce42-d032bd918763"},"source":["#@title 开始挂载 \n","#挂载谷歌云盘\n","#点击链接授权，复制授权码，填入框框，然后回车。\n","\n","from google.colab import drive\n","drive.mount('/content/drive', force_remount=True)\n","\n","#创建DeepFaceLab目录，并且进入目录\n","%cd /content/drive/My Drive/\n","!mkdir DeepFaceLab\n","%cd /content/drive/My Drive/DeepFaceLab/\n"],"execution_count":null,"outputs":[{"output_type":"stream","text":["Mounted at /content/drive\n","/content/drive/My Drive\n","mkdir: cannot create directory ‘DeepFaceLab’: File exists\n","/content/drive/My Drive/DeepFaceLab\n"],"name":"stdout"}]},{"cell_type":"markdown","metadata":{"id":"_nyimmWVKk8V"},"source":["这一环节有两个选择：  \n","如果你第一次使用，可以加载示例项目，然后往后运行。  \n","如果你是二次运行，就不需要加载了。  \n","如果你希望上传本地素材，可以先用pack脚本把素材打包成faceset.pak到aligned目录，无须解压，可直接进行训练和转换，加载速度会很快。\n"]},{"cell_type":"code","metadata":{"id":"cNsq0I98KvHl","colab":{"base_uri":"https://localhost:8080/"},"cellView":"form","executionInfo":{"status":"ok","timestamp":1617456918542,"user_tz":-540,"elapsed":57508,"user":{"displayName":"王思雨","photoUrl":"https://lh3.googleusercontent.com/a-/AOh14GgdKvMq1fEVrSVYMjY_lkMRC-UmX30N77KQ_6cd=s64","userId":"09556943149130240731"}},"outputId":"adfaafc7-258d-41f8-8330-a4194cc29b7d"},"source":["#@title 加载示例项目workspace \n","# 1. 练手可以使用这一行，直接git clone一个workspace\n","%cd /content/drive/My Drive/DeepFaceLab/\n","!rm -rf workspace\n","!git clone https://github.com/dream80/DFLWorkspace.git workspace"],"execution_count":null,"outputs":[{"output_type":"stream","text":["/content/drive/My Drive/DeepFaceLab\n","Cloning into 'workspace'...\n","remote: Enumerating objects: 4, done.\u001b[K\n","remote: Counting objects: 100% (4/4), done.\u001b[K\n","remote: Compressing objects: 100% (4/4), done.\u001b[K\n","remote: Total 39 (delta 0), reused 2 (delta 0), pack-reused 35\u001b[K\n","Unpacking objects: 100% (39/39), done.\n","Checking out files: 100% (8/8), done.\n"],"name":"stdout"}]},{"cell_type":"markdown","metadata":{"id":"yA4nziLPtAf9"},"source":["#第二步 安装DeepFaceLab\n","获取源代码，安装依赖,根据自己的情况选择版本  \n","\n","last:最新版  "]},{"cell_type":"code","metadata":{"id":"4CbWbLzHzqTQ","cellView":"form"},"source":["#@title 开始安装\n","\n","Version = \"last\" #@param [\"v2.02.03\", \"v2.02.23b\", \"v2.02.28\",\"v2.03.07\",\"v2.03.15\",\"v2.06.01\",\"v2.06.19\",\"last\"]\n","%cd /content/drive/My Drive/DeepFaceLab\n","!rm -fr DeepFaceLab_Colab\n","!pip uninstall -y tensorflow\n","if Version==\"620\":\n","  print(\"620版加载中....\")\n","  # 获取DFL源代码v1.6.1稳定版\n","  !git clone -b v1.6.1 https://github.com/dream80/DeepFaceLab_Colab.git\n","  %cd /content/drive/My Drive/DeepFaceLab/DeepFaceLab_Colab\n","  !pip install -r requirements-colab.txt  \n","elif Version==\"last\":\n","  print(\"最新版加载中....\")\n","  !git clone https://github.com/iperov/DeepFaceLab.git  DeepFaceLab_Colab\n","  %cd /content/drive/My Drive/DeepFaceLab/DeepFaceLab_Colab\n","  !pip install -r requirements-colab.txt\n","else:\n","  print(Version+\"加载中....\")\n","  cmd=\"clone -b \"+Version+\" https://github.com/dream80/DeepFaceLab_Colab.git\"  \n","  !git $cmd\n","  %cd /content/drive/My Drive/DeepFaceLab/DeepFaceLab_Colab\n","  !pip install -r requirements-colab.txt\n","\n","!pip install --upgrade scikit-image\n","#!sudo apt-get install cuda-10-0\n"],"execution_count":null,"outputs":[]},{"cell_type":"markdown","metadata":{"id":"9G9s5gJrty-x"},"source":["# 第三步. 提取脸部"]},{"cell_type":"markdown","metadata":{"id":"llMCZb-uMuD1"},"source":["这个步骤其实是分两次的。第一次选src，第二次选dst，很多对Deepfacelab不了解的人可能只点了一个，后面就会报错了。  \n","  \n","这一步，其实有三个小步骤，分解视频，提取人脸，打包素材。 如果有需要可以将他们拆分开来。一般是不用这么做的。 \n","\n","\n","\n"]},{"cell_type":"markdown","metadata":{"id":"6flnCGqpIeen"},"source":[""]},{"cell_type":"code","metadata":{"id":"YnhZyEERAW_D","colab":{"base_uri":"https://localhost:8080/"},"cellView":"form","executionInfo":{"status":"ok","timestamp":1617459014336,"user_tz":-540,"elapsed":176376,"user":{"displayName":"王思雨","photoUrl":"https://lh3.googleusercontent.com/a-/AOh14GgdKvMq1fEVrSVYMjY_lkMRC-UmX30N77KQ_6cd=s64","userId":"09556943149130240731"}},"outputId":"a874f477-de11-4a8e-d4d2-db47ac56b9c6"},"source":["#@title 开始提取\n","target = \"dst\" #@param [\"src\",\"dst\"]\n","%cd /content/drive/My Drive/DeepFaceLab/DeepFaceLab_Colab\n","if target==\"src\":\n","  !python main.py videoed extract-video --input-file ../workspace/data_src.mp4 --output-dir ../workspace/data_src/\n","  !python main.py extract --input-dir ../workspace/data_src --output-dir ../workspace/data_src/aligned --detector s3fd\n","  !python main.py util --input-dir ../workspace/data_src/aligned  --pack-faceset\n","else:\n","  !python main.py videoed extract-video --input-file ../workspace/data_dst.mp4 --output-dir ../workspace/data_dst/\n","  !python main.py extract --input-dir ../workspace/data_dst --output-dir ../workspace/data_dst/aligned --detector s3fd --output-debug\n","  !python main.py util --input-dir ../workspace/data_dst/aligned  --pack-faceset\n"],"execution_count":null,"outputs":[{"output_type":"stream","text":["/content/drive/My Drive/DeepFaceLab/DeepFaceLab_Colab\n","[0] Enter FPS ( ?:help ) : \n","0\n","[png] Output image format ( png/jpg ?:help ) : \n","png\n","ffmpeg version 3.4.8-0ubuntu0.2 Copyright (c) 2000-2020 the FFmpeg developers\n","  built with gcc 7 (Ubuntu 7.5.0-3ubuntu1~18.04)\n","  configuration: --prefix=/usr --extra-version=0ubuntu0.2 --toolchain=hardened --libdir=/usr/lib/x86_64-linux-gnu --incdir=/usr/include/x86_64-linux-gnu --enable-gpl --disable-stripping --enable-avresample --enable-avisynth --enable-gnutls --enable-ladspa --enable-libass --enable-libbluray --enable-libbs2b --enable-libcaca --enable-libcdio --enable-libflite --enable-libfontconfig --enable-libfreetype --enable-libfribidi --enable-libgme --enable-libgsm --enable-libmp3lame --enable-libmysofa --enable-libopenjpeg --enable-libopenmpt --enable-libopus --enable-libpulse --enable-librubberband --enable-librsvg --enable-libshine --enable-libsnappy --enable-libsoxr --enable-libspeex --enable-libssh --enable-libtheora --enable-libtwolame --enable-libvorbis --enable-libvpx --enable-libwavpack --enable-libwebp --enable-libx265 --enable-libxml2 --enable-libxvid --enable-libzmq --enable-libzvbi --enable-omx --enable-openal --enable-opengl --enable-sdl2 --enable-libdc1394 --enable-libdrm --enable-libiec61883 --enable-chromaprint --enable-frei0r --enable-libopencv --enable-libx264 --enable-shared\n","  libavutil      55. 78.100 / 55. 78.100\n","  libavcodec     57.107.100 / 57.107.100\n","  libavformat    57. 83.100 / 57. 83.100\n","  libavdevice    57. 10.100 / 57. 10.100\n","  libavfilter     6.107.100 /  6.107.100\n","  libavresample   3.  7.  0 /  3.  7.  0\n","  libswscale      4.  8.100 /  4.  8.100\n","  libswresample   2.  9.100 /  2.  9.100\n","  libpostproc    54.  7.100 / 54.  7.100\n","Input #0, mov,mp4,m4a,3gp,3g2,mj2, from '/content/drive/My Drive/DeepFaceLab/workspace/data_dst.mp4':\n","  Metadata:\n","    major_brand     : mp42\n","    minor_version   : 0\n","    compatible_brands: mp42isom\n","    creation_time   : 2020-10-24T14:16:31.000000Z\n","    copyright       : \n","    copyright-eng   : \n","  Duration: 00:00:09.36, start: 0.000000, bitrate: 730 kb/s\n","    Stream #0:0(und): Audio: aac (LC) (mp4a / 0x6134706D), 44100 Hz, mono, fltp, 64 kb/s (default)\n","    Metadata:\n","      creation_time   : 2020-10-24T14:16:31.000000Z\n","    Stream #0:1(und): Video: h264 (High) (avc1 / 0x31637661), yuv420p, 544x720, 661 kb/s, 24.08 fps, 24.08 tbr, 90k tbn, 50 tbc (default)\n","    Metadata:\n","      creation_time   : 2020-10-24T14:16:31.000000Z\n","      encoder         : JVT/AVC Coding\n","Stream mapping:\n","  Stream #0:1 -> #0:0 (h264 (native) -> png (native))\n","Press [q] to stop, [?] for help\n","Output #0, image2, to '/content/drive/My Drive/DeepFaceLab/workspace/data_dst/%5d.png':\n","  Metadata:\n","    major_brand     : mp42\n","    minor_version   : 0\n","    compatible_brands: mp42isom\n","    copyright-eng   : \n","    copyright       : \n","    encoder         : Lavf57.83.100\n","    Stream #0:0(und): Video: png, rgb24, 544x720, q=2-31, 200 kb/s, 24.08 fps, 24.08 tbn, 24.08 tbc (default)\n","    Metadata:\n","      creation_time   : 2020-10-24T14:16:31.000000Z\n","      encoder         : Lavc57.107.100 png\n","frame=  227 fps= 26 q=-0.0 Lsize=N/A time=00:00:09.42 bitrate=N/A dup=2 drop=0 speed= 1.1x    \n","video:68433kB audio:0kB subtitle:0kB other streams:0kB global headers:0kB muxing overhead: unknown\n","Done.\n","\n","Choose one or several GPU idxs (separated by comma).\n","\n","[CPU] : CPU\n","  [0] : Tesla P100-PCIE-16GB\n","\n","[0] Which GPU indexes to choose? : 0\n","0\n","\n","[wf] Face type ( f/wf/head ?:help ) : \n","wf\n","[0] Max number of faces from image ( ?:help ) : \n","0\n","[512] Image size ( 256-2048 ?:help ) : \n","512\n","[90] Jpeg quality ( 1-100 ?:help ) : \n","90\n","Extracting faces...\n","Running on Tesla P100-PCIE-16GB\n","100% 227/227 [01:26<00:00,  2.62it/s]\n","-------------------------\n","Images found:        227\n","Faces detected:      208\n","-------------------------\n","Done.\n","Performing faceset packing...\n","\n","Loading samples: 100% 208/208 [00:01<00:00, 161.54it/s]\n","Processing: 100% 208/208 [00:00<00:00, 27921.75it/s]\n","Packing: 100% 208/208 [00:00<00:00, 687.73it/s]\n","Deleting files: 100% 208/208 [00:01<00:00, 188.11it/s]\n","Done.\n"],"name":"stdout"}]},{"cell_type":"code","metadata":{"id":"5MrM8JfIFiy7","cellView":"form","colab":{"base_uri":"https://localhost:8080/"},"executionInfo":{"status":"ok","timestamp":1617459302228,"user_tz":-540,"elapsed":5823,"user":{"displayName":"王思雨","photoUrl":"https://lh3.googleusercontent.com/a-/AOh14GgdKvMq1fEVrSVYMjY_lkMRC-UmX30N77KQ_6cd=s64","userId":"09556943149130240731"}},"outputId":"1d435945-94d8-4a79-93b1-0535b5902cff"},"source":["#@title 开始排序\n","target = \"dst\" #@param [\"src\",\"dst\"]\n","\n","if target==\"src\":\n","  #Src排序，可以通过谷歌云盘查看结果，删除不良图片\n","  cmd = \"main.py sort --input-dir ../workspace/data_src/aligned\"\n","  \n","else:\n","  cmd = \"main.py sort --input-dir ../workspace/data_dst/aligned \"\n","\n","!python $cmd"],"execution_count":null,"outputs":[{"output_type":"stream","text":["Running sort tool.\r\n","\n","Choose sorting method:\n","[0] blur\n","[1] motion_blur\n","[2] face yaw direction\n","[3] face pitch direction\n","[4] face rect size in source image\n","[5] histogram similarity\n","[6] histogram dissimilarity\n","[7] brightness\n","[8] hue\n","[9] amount of black pixels\n","[10] original filename\n","[11] one face in image\n","[12] absolute pixel difference\n","[13] best faces\n","[14] best faces faster\n","\n","[5] : \n","5\n","Sorting by histogram similarity...\n","Running on 1 threads\n","\n","\n","Sorting: 1it [00:00, 30.04it/s]   \n","Done.\n"],"name":"stdout"}]},{"cell_type":"markdown","metadata":{"id":"QxO1kNO_uRTF"},"source":["# 第四步. 训练模型\n","\n","\n","*  支持SAEHD,Quick96等模型，根据自己的情况选择模型。\n","*  第一次需要配置模型参数，不懂的直接回车默认。\n","*  不想训练了可以点击停止，停止时会抛出异常，但是没什么关系。下次可以继续训练"]},{"cell_type":"code","metadata":{"id":"MKQbOrIiyFJL","cellView":"form","colab":{"base_uri":"https://localhost:8080/"},"outputId":"962935c9-ad41-4453-e7b0-1fdee17cacc7"},"source":["#@title 开始训练\n","Model = \"SAEHD\" #@param [\"SAEHD\",\"Quick96\"]\n","\n","%cd \"/content/drive/My Drive/DeepFaceLab/DeepFaceLab_Colab/\"\n","cmd = \"main.py train --training-data-src-dir ../workspace/data_src/aligned --training-data-dst-dir ../workspace/data_dst/aligned --model-dir ../workspace/model --model \"+Model+\" --no-preview\"\n","!python $cmd"],"execution_count":null,"outputs":[{"output_type":"stream","text":["/content/drive/My Drive/DeepFaceLab/DeepFaceLab_Colab\n","Running trainer.\n","\n","[new] No saved models found. Enter a name of a new model : wo\n","wo\n","\n","Model first run.\n","\n","Choose one or several GPU idxs (separated by comma).\n","\n","[CPU] : CPU\n","  [0] : Tesla P100-PCIE-16GB\n","\n","[0] Which GPU indexes to choose? : 0\n","0\n","\n","[0] Autobackup every N hour ( 0..24 ?:help ) : \n","0\n","[n] Write preview history ( y/n ?:help ) : \n","n\n","[0] Target iteration : \n","0\n","[n] Flip SRC faces randomly ( y/n ?:help ) : \n","n\n","[y] Flip DST faces randomly ( y/n ?:help ) : \n","y\n","[8] Batch_size ( ?:help ) : \n","8\n","[128] Resolution ( 64-640 ?:help ) : \n","128\n","[f] Face type ( h/mf/f/wf/head ?:help ) : \n","f\n","[liae-ud] AE architecture ( ?:help ) : \n","liae-ud\n","[256] AutoEncoder dimensions ( 32-1024 ?:help ) : \n","256\n","[64] Encoder dimensions ( 16-256 ?:help ) : \n","64\n","[64] Decoder dimensions ( 16-256 ?:help ) : \n","64\n","[22] Decoder mask dimensions ( 16-256 ?:help ) : \n","22\n","[n] Eyes and mouth priority ( y/n ?:help ) : \n","n\n","[n] Uniform yaw distribution of samples ( y/n ?:help ) : \n","n\n","[y] Place models and optimizer on GPU ( y/n ?:help ) : \n","y\n","[y] Use AdaBelief optimizer? ( y/n ?:help ) : \n","y\n","[n] Use learning rate dropout ( n/y/cpu ?:help ) : \n","n\n","[y] Enable random warp of samples ( y/n ?:help ) : \n","y\n","[0.0] GAN power ( 0.0 .. 1.0 ?:help ) : \n","0.0\n","[0.0] Face style power ( 0.0..100.0 ?:help ) : \n","0.0\n","[0.0] Background style power ( 0.0..100.0 ?:help ) : \n","0.0\n","[none] Color transfer for src faceset ( none/rct/lct/mkl/idt/sot ?:help ) : \n","none\n","[n] Enable gradient clipping ( y/n ?:help ) : \n","n\n","[n] Enable pretraining mode ( y/n ?:help ) : \n","n\n","\n","\n","Initializing models: 100% 5/5 [00:43<00:00,  8.60s/it]\n","Loaded 2424 packed faces from /content/drive/My Drive/DeepFaceLab/workspace/data_src/aligned\n","Loaded 208 packed faces from /content/drive/My Drive/DeepFaceLab/workspace/data_dst/aligned\n","================= Model Summary =================\n","==                                             ==\n","==            Model name: wo_SAEHD             ==\n","==                                             ==\n","==     Current iteration: 0                    ==\n","==                                             ==\n","==--------------- Model Options ---------------==\n","==                                             ==\n","==            resolution: 128                  ==\n","==             face_type: f                    ==\n","==     models_opt_on_gpu: True                 ==\n","==                 archi: liae-ud              ==\n","==               ae_dims: 256                  ==\n","==                e_dims: 64                   ==\n","==                d_dims: 64                   ==\n","==           d_mask_dims: 22                   ==\n","==       masked_training: True                 ==\n","==       eyes_mouth_prio: False                ==\n","==           uniform_yaw: False                ==\n","==             adabelief: True                 ==\n","==            lr_dropout: n                    ==\n","==           random_warp: True                 ==\n","==       true_face_power: 0.0                  ==\n","==      face_style_power: 0.0                  ==\n","==        bg_style_power: 0.0                  ==\n","==               ct_mode: none                 ==\n","==              clipgrad: False                ==\n","==              pretrain: False                ==\n","==       autobackup_hour: 0                    ==\n","== write_preview_history: False                ==\n","==           target_iter: 0                    ==\n","==       random_src_flip: False                ==\n","==       random_dst_flip: True                 ==\n","==            batch_size: 8                    ==\n","==             gan_power: 0.0                  ==\n","==        gan_patch_size: 16                   ==\n","==              gan_dims: 16                   ==\n","==                                             ==\n","==---------------- Running On -----------------==\n","==                                             ==\n","==          Device index: 0                    ==\n","==                  Name: Tesla P100-PCIE-16GB ==\n","==                  VRAM: 15.90GB              ==\n","==                                             ==\n","=================================================\n","Starting. Press \"Enter\" to stop training and save model.\n","\n","Trying to do the first iteration. If an error occurs, reduce the model parameters.\n","\n","You are training the model from scratch. It is strongly recommended to use a pretrained model to speed up the training and improve the quality.\n","\n","[14:17:20][#000002][0218ms][5.0695][4.9540]\n","[14:32:17][#001919][0233ms][0.7958][1.1640]\n","[14:47:16][#003806][0214ms][0.4294][0.7064]\n","[15:02:16][#005715][0214ms][0.3607][0.5990]\n","[15:17:17][#007647][0222ms][0.3207][0.5355]\n","[15:32:16][#009592][0217ms][0.2909][0.4887]\n","[15:47:17][#011539][0248ms][0.2704][0.4568]\n","[16:02:16][#013471][0226ms][0.2535][0.4317]\n","[16:17:16][#015394][0223ms][0.2389][0.4090]\n","[16:32:17][#017328][0409ms][0.2272][0.3904]\n","[16:47:17][#019271][0262ms][0.2141][0.3728]\n","[17:02:16][#021193][0213ms][0.2054][0.3589]\n","[17:17:16][#023119][0250ms][0.1945][0.3435]\n","[17:32:17][#025066][0220ms][0.1890][0.3314]\n","[17:47:17][#027025][0215ms][0.1829][0.3234]\n","[18:02:16][#029004][0245ms][0.1770][0.3133]\n","[18:07:35][#029706][0482ms][0.1580][0.2856]"],"name":"stdout"}]},{"cell_type":"markdown","metadata":{"id":"m2Ba96cVuS0K"},"source":["# 第五步. 转换输出\n","\n","训练模型的时候选了什么，这里就选什么  \n","比如训练H128,这里就选H128\n"]},{"cell_type":"code","metadata":{"id":"G_oEgeU7I9jt","cellView":"form","colab":{"base_uri":"https://localhost:8080/"},"executionInfo":{"status":"ok","timestamp":1617520058496,"user_tz":-540,"elapsed":1995198,"user":{"displayName":"王思雨","photoUrl":"https://lh3.googleusercontent.com/a-/AOh14GgdKvMq1fEVrSVYMjY_lkMRC-UmX30N77KQ_6cd=s64","userId":"09556943149130240731"}},"outputId":"1fe61ae7-1143-4f7f-9b75-ce30e5f09762"},"source":["#@title 开始转换图片\n","\n","Model = \"SAEHD\" #@param [\"SAEHD\", \"Quick96\"]\n","%cd \"/content/drive/My Drive/DeepFaceLab/DeepFaceLab_Colab/\"\n","cmd = \" main.py merge --output-mask-dir ../workspace/data_dst/merged_mask --input-dir ../workspace/data_dst --output-dir ../workspace/data_dst/merged --aligned-dir ../workspace/data_dst/aligned --model-dir ../workspace/model --model \" + Model\n","!python $cmd"],"execution_count":2,"outputs":[{"output_type":"stream","text":["/content/drive/My Drive/DeepFaceLab/DeepFaceLab_Colab\n","Running merger.\n","\n","Choose one of saved models, or enter a name to create a new model.\n","[r] : rename\n","[d] : delete\n","\n","[0] : wo - latest\n"," : 0\n","0\n","Loading wo_SAEHD model...\n","\n","Choose one or several GPU idxs (separated by comma).\n","\n","[CPU] : CPU\n","  [0] : Tesla T4\n","\n","[0] Which GPU indexes to choose? : 0\n","0\n","\n","Initializing models: 100% 4/4 [00:08<00:00,  2.01s/it]\n","=========== Model Summary ===========\n","==                                 ==\n","==            Model name: wo_SAEHD ==\n","==                                 ==\n","==     Current iteration: 32939    ==\n","==                                 ==\n","==--------- Model Options ---------==\n","==                                 ==\n","==            resolution: 128      ==\n","==             face_type: f        ==\n","==     models_opt_on_gpu: True     ==\n","==                 archi: liae-ud  ==\n","==               ae_dims: 256      ==\n","==                e_dims: 64       ==\n","==                d_dims: 64       ==\n","==           d_mask_dims: 22       ==\n","==       masked_training: True     ==\n","==       eyes_mouth_prio: False    ==\n","==           uniform_yaw: False    ==\n","==             adabelief: True     ==\n","==            lr_dropout: n        ==\n","==           random_warp: True     ==\n","==       true_face_power: 0.0      ==\n","==      face_style_power: 0.0      ==\n","==        bg_style_power: 0.0      ==\n","==               ct_mode: none     ==\n","==              clipgrad: False    ==\n","==              pretrain: False    ==\n","==       autobackup_hour: 0        ==\n","== write_preview_history: False    ==\n","==           target_iter: 0        ==\n","==       random_src_flip: False    ==\n","==       random_dst_flip: True     ==\n","==            batch_size: 8        ==\n","==             gan_power: 0.0      ==\n","==        gan_patch_size: 16       ==\n","==              gan_dims: 16       ==\n","==                                 ==\n","==---------- Running On -----------==\n","==                                 ==\n","==          Device index: 0        ==\n","==                  Name: Tesla T4 ==\n","==                  VRAM: 14.76GB  ==\n","==                                 ==\n","=====================================\n","Choose mode: \n","(0) original\n","(1) overlay\n","(2) hist-match\n","(3) seamless\n","(4) seamless-hist-match\n","(5) raw-rgb\n","(6) raw-predict\n","\n","[1] : \n","1\n","Choose mask mode: \n","(1) dst\n","(2) learned-prd\n","(3) learned-dst\n","(4) learned-prd*learned-dst\n","(5) learned-prd+learned-dst\n","(6) XSeg-prd\n","(7) XSeg-dst\n","(8) XSeg-prd*XSeg-dst\n","(9) learned-prd*learned-dst*XSeg-prd*XSeg-dst\n","\n","[1] : \n","1\n","[0] Choose erode mask modifier ( -400..400 ) : \n","0\n","[0] Choose blur mask modifier ( 0..400 ) : \n","0\n","[0] Choose motion blur power ( 0..100 ) : \n","0\n","[0] Choose output face scale modifier ( -50..50 ) : \n","0\n","Color transfer to predicted face ( rct/lct/mkl/mkl-m/idt/idt-m/sot-m/mix-m ) : \n","\n","Choose sharpen mode: \n","(0) None\n","(1) box\n","(2) gaussian\n","\n","[0] ( ?:help ) : \n","0\n","[0] Choose super resolution power ( 0..100 ?:help ) : \n","0\n","[0] Choose image degrade by denoise power ( 0..500 ) : \n","0\n","[0] Choose image degrade by bicubic rescale power ( 0..100 ) : \n","0\n","[0] Degrade color power of final image ( 0..100 ) : \n","0\n","\n","[8] Number of workers? ( 1-2 ?:help ) : \n","8\n","Using packed faceset.\n","Collecting alignments:   0% 0/208 [00:00<?, ?it/s]\n","Collecting alignments: 100% 208/208 [00:05<00:00, 37.81it/s]\n","Computing motion vectors: 100% 227/227 [00:00<00:00, 1198.67it/s]\n","Running on CPU1.\n","Running on CPU0.\n","Running on CPU3.\n","Running on CPU2.\n","Running on CPU7.\n","Running on CPU4.\n","Running on CPU5.\n","Running on CPU6.\n","Merging:  78% 176/227 [00:24<00:07,  7.08it/s]\n","\n","no faces found for 00183.png, copying without faces\n","Merging:  78% 177/227 [00:24<00:07,  7.12it/s]\n","\n","no faces found for 00184.png, copying without faces\n","\n","\n","no faces found for 00185.png, copying without faces\n","Merging:  79% 180/227 [00:24<00:06,  7.23it/s]\n","\n","no faces found for 00187.png, copying without faces\n","\n","\n","no faces found for 00188.png, copying without faces\n","Merging:  80% 182/227 [00:25<00:06,  7.16it/s]\n","\n","no faces found for 00189.png, copying without faces\n","Merging:  81% 183/227 [00:25<00:06,  7.19it/s]\n","\n","no faces found for 00190.png, copying without faces\n","Merging:  81% 184/227 [00:25<00:05,  7.23it/s]\n","\n","no faces found for 00191.png, copying without faces\n","Merging:  81% 185/227 [00:25<00:05,  7.27it/s]\n","\n","no faces found for 00192.png, copying without faces\n","Merging:  82% 187/227 [00:25<00:05,  7.34it/s]\n","\n","no faces found for 00194.png, copying without faces\n","Merging:  83% 188/227 [00:25<00:05,  7.38it/s]\n","\n","no faces found for 00195.png, copying without faces\n","Merging:  93% 212/227 [00:27<00:01,  7.62it/s]\n","\n","no faces found for 00220.png, copying without faces\n","Merging:  94% 213/227 [00:27<00:01,  7.61it/s]\n","\n","no faces found for 00221.png, copying without faces\n","Merging:  94% 214/227 [00:28<00:01,  7.49it/s]\n","\n","no faces found for 00222.png, copying without faces\n","Merging:  95% 216/227 [00:28<00:01,  7.56it/s]\n","\n","no faces found for 00223.png, copying without faces\n","Merging:  96% 217/227 [00:28<00:01,  7.59it/s]\n","\n","no faces found for 00224.png, copying without faces\n","Merging:  96% 218/227 [00:28<00:01,  7.62it/s]\n","\n","no faces found for 00225.png, copying without faces\n","Merging:  96% 219/227 [00:28<00:01,  7.66it/s]\n","\n","no faces found for 00226.png, copying without faces\n","Merging:  97% 220/227 [00:28<00:00,  7.69it/s]\n","\n","no faces found for 00227.png, copying without faces\n","Merging: 100% 227/227 [00:29<00:00,  7.74it/s]\n","Done.\n"],"name":"stdout"}]},{"cell_type":"code","metadata":{"id":"fbxfQ8UbJrqk","cellView":"form","colab":{"base_uri":"https://localhost:8080/"},"executionInfo":{"status":"ok","timestamp":1617521818943,"user_tz":-540,"elapsed":1755703,"user":{"displayName":"王思雨","photoUrl":"https://lh3.googleusercontent.com/a-/AOh14GgdKvMq1fEVrSVYMjY_lkMRC-UmX30N77KQ_6cd=s64","userId":"09556943149130240731"}},"outputId":"47657f1d-3340-43cb-f0dc-7d82a179cca6"},"source":["#@title 开始图片转视频\n","!python main.py videoed video-from-sequence --input-dir ../workspace/data_dst/merged --output-file ../workspace/result.mp4 --reference-file ../workspace/data_dst.mp4 --include-audio\n","!python main.py videoed video-from-sequence --input-dir ../workspace/data_dst/merged_mask --output-file ../workspace/result_mask.mp4 --reference-file ../workspace/data_dst.mp4 --include-audio --lossless"],"execution_count":3,"outputs":[{"output_type":"stream","text":["[16] Bitrate of output file in MB/s : \n","16\n","ffmpeg version 3.4.8-0ubuntu0.2 Copyright (c) 2000-2020 the FFmpeg developers\n","  built with gcc 7 (Ubuntu 7.5.0-3ubuntu1~18.04)\n","  configuration: --prefix=/usr --extra-version=0ubuntu0.2 --toolchain=hardened --libdir=/usr/lib/x86_64-linux-gnu --incdir=/usr/include/x86_64-linux-gnu --enable-gpl --disable-stripping --enable-avresample --enable-avisynth --enable-gnutls --enable-ladspa --enable-libass --enable-libbluray --enable-libbs2b --enable-libcaca --enable-libcdio --enable-libflite --enable-libfontconfig --enable-libfreetype --enable-libfribidi --enable-libgme --enable-libgsm --enable-libmp3lame --enable-libmysofa --enable-libopenjpeg --enable-libopenmpt --enable-libopus --enable-libpulse --enable-librubberband --enable-librsvg --enable-libshine --enable-libsnappy --enable-libsoxr --enable-libspeex --enable-libssh --enable-libtheora --enable-libtwolame --enable-libvorbis --enable-libvpx --enable-libwavpack --enable-libwebp --enable-libx265 --enable-libxml2 --enable-libxvid --enable-libzmq --enable-libzvbi --enable-omx --enable-openal --enable-opengl --enable-sdl2 --enable-libdc1394 --enable-libdrm --enable-libiec61883 --enable-chromaprint --enable-frei0r --enable-libopencv --enable-libx264 --enable-shared\n","  libavutil      55. 78.100 / 55. 78.100\n","  libavcodec     57.107.100 / 57.107.100\n","  libavformat    57. 83.100 / 57. 83.100\n","  libavdevice    57. 10.100 / 57. 10.100\n","  libavfilter     6.107.100 /  6.107.100\n","  libavresample   3.  7.  0 /  3.  7.  0\n","  libswscale      4.  8.100 /  4.  8.100\n","  libswresample   2.  9.100 /  2.  9.100\n","  libpostproc    54.  7.100 / 54.  7.100\n","Input #0, image2pipe, from 'pipe:':\n","  Duration: N/A, bitrate: N/A\n","    Stream #0:0: Video: png, rgb24(pc), 544x720, 24.08 fps, 24.08 tbr, 24.08 tbn, 24.08 tbc\n","Input #1, mov,mp4,m4a,3gp,3g2,mj2, from '/content/drive/My Drive/DeepFaceLab/workspace/data_dst.mp4':\n","  Metadata:\n","    major_brand     : mp42\n","    minor_version   : 0\n","    compatible_brands: mp42isom\n","    creation_time   : 2020-10-24T14:16:31.000000Z\n","    copyright       : \n","    copyright-eng   : \n","  Duration: 00:00:09.36, start: 0.000000, bitrate: 730 kb/s\n","    Stream #1:0(und): Audio: aac (LC) (mp4a / 0x6134706D), 44100 Hz, mono, fltp, 64 kb/s (default)\n","    Metadata:\n","      creation_time   : 2020-10-24T14:16:31.000000Z\n","    Stream #1:1(und): Video: h264 (High) (avc1 / 0x31637661), yuv420p, 544x720, 661 kb/s, 24.08 fps, 24.08 tbr, 90k tbn, 50 tbc (default)\n","    Metadata:\n","      creation_time   : 2020-10-24T14:16:31.000000Z\n","      encoder         : JVT/AVC Coding\n","Stream mapping:\n","  Stream #0:0 -> #0:0 (png (native) -> h264 (libx264))\n","  Stream #1:0 -> #0:1 (aac (native) -> aac (native))\n","\u001b[0;35m[image2pipe @ 0x559a15544000] \u001b[0m\u001b[0;33mThread message queue blocking; consider raising the thread_queue_size option (current value: 8)\n","\u001b[0m\u001b[1;36m[libx264 @ 0x559a15540000] \u001b[0musing cpu capabilities: MMX2 SSE2Fast SSSE3 SSE4.2 AVX FMA3 BMI2 AVX2\n","\u001b[1;36m[libx264 @ 0x559a15540000] \u001b[0mprofile High, level 4.1\n","\u001b[1;36m[libx264 @ 0x559a15540000] \u001b[0m264 - core 152 r2854 e9a5903 - H.264/MPEG-4 AVC codec - Copyleft 2003-2017 - http://www.videolan.org/x264.html - options: cabac=1 ref=3 deblock=1:0:0 analyse=0x3:0x113 me=hex subme=7 psy=1 psy_rd=1.00:0.00 mixed_ref=1 me_range=16 chroma_me=1 trellis=1 8x8dct=1 cqm=0 deadzone=21,11 fast_pskip=1 chroma_qp_offset=-2 threads=3 lookahead_threads=1 sliced_threads=0 nr=0 decimate=1 interlaced=0 bluray_compat=0 constrained_intra=0 bframes=3 b_pyramid=2 b_adapt=1 b_bias=0 direct=1 weightb=1 open_gop=0 weightp=2 keyint=250 keyint_min=24 scenecut=40 intra_refresh=0 rc_lookahead=40 rc=abr mbtree=1 bitrate=16000 ratetol=1.0 qcomp=0.60 qpmin=0 qpmax=69 qpstep=4 ip_ratio=1.40 aq=1:1.00\n","Output #0, mp4, to '/content/drive/My Drive/DeepFaceLab/workspace/result.mp4':\n","  Metadata:\n","    encoder         : Lavf57.83.100\n","    Stream #0:0: Video: h264 (libx264) (avc1 / 0x31637661), yuv420p(progressive), 544x720, q=-1--1, 16000 kb/s, 24.08 fps, 18496 tbn, 24.08 tbc\n","    Metadata:\n","      encoder         : Lavc57.107.100 libx264\n","    Side data:\n","      cpb: bitrate max/min/avg: 0/0/16000000 buffer size: 0 vbv_delay: -1\n","    Stream #0:1(und): Audio: aac (LC) (mp4a / 0x6134706D), 48000 Hz, mono, fltp, 192 kb/s (default)\n","    Metadata:\n","      creation_time   : 2020-10-24T14:16:31.000000Z\n","      encoder         : Lavc57.107.100 aac\n","frame=   61 fps= 56 q=0.0 size=     512kB time=00:00:00.49 bitrate=8549.0kbits/s speed=0.454x    \n","frame=  227 fps= 18 q=-1.0 Lsize=   16089kB time=00:00:09.36 bitrate=14073.2kbits/s speed=0.744x    \n","video:15923kB audio:158kB subtitle:0kB other streams:0kB global headers:0kB muxing overhead: 0.048023%\n","\u001b[1;36m[libx264 @ 0x559a15540000] \u001b[0mframe I:3     Avg QP: 0.43  size: 91625\n","\u001b[1;36m[libx264 @ 0x559a15540000] \u001b[0mframe P:66    Avg QP: 0.19  size: 97758\n","\u001b[1;36m[libx264 @ 0x559a15540000] \u001b[0mframe B:158   Avg QP: 0.51  size: 60617\n","\u001b[1;36m[libx264 @ 0x559a15540000] \u001b[0mconsecutive B-frames:  2.6%  9.7% 11.9% 75.8%\n","\u001b[1;36m[libx264 @ 0x559a15540000] \u001b[0mmb I  I16..4: 25.1% 19.3% 55.6%\n","\u001b[1;36m[libx264 @ 0x559a15540000] \u001b[0mmb P  I16..4: 14.1% 14.5% 37.4%  P16..4: 16.5%  8.4%  6.8%  0.0%  0.0%    skip: 2.2%\n","\u001b[1;36m[libx264 @ 0x559a15540000] \u001b[0mmb B  I16..4:  2.7%  3.1%  8.6%  B16..8: 29.6%  9.9%  5.8%  direct:21.6%  skip:18.7%  L0:43.8% L1:36.6% BI:19.6%\n","\u001b[1;36m[libx264 @ 0x559a15540000] \u001b[0mfinal ratefactor: -6.37\n","\u001b[1;36m[libx264 @ 0x559a15540000] \u001b[0m8x8 transform intra:21.8% inter:31.7%\n","\u001b[1;36m[libx264 @ 0x559a15540000] \u001b[0mcoded y,uvDC,uvAC intra: 84.5% 72.7% 66.7% inter: 61.3% 55.0% 51.5%\n","\u001b[1;36m[libx264 @ 0x559a15540000] \u001b[0mi16 v,h,dc,p: 34% 24% 26% 16%\n","\u001b[1;36m[libx264 @ 0x559a15540000] \u001b[0mi8 v,h,dc,ddl,ddr,vr,hd,vl,hu: 27% 26% 19%  3%  5%  5%  5%  4%  5%\n","\u001b[1;36m[libx264 @ 0x559a15540000] \u001b[0mi4 v,h,dc,ddl,ddr,vr,hd,vl,hu: 30% 27% 11%  4%  7%  5%  7%  4%  4%\n","\u001b[1;36m[libx264 @ 0x559a15540000] \u001b[0mi8c dc,h,v,p: 50% 22% 22%  7%\n","\u001b[1;36m[libx264 @ 0x559a15540000] \u001b[0mWeighted P-Frames: Y:28.8% UV:19.7%\n","\u001b[1;36m[libx264 @ 0x559a15540000] \u001b[0mref P L0: 66.3% 15.4% 14.1%  3.4%  0.8%\n","\u001b[1;36m[libx264 @ 0x559a15540000] \u001b[0mref B L0: 89.5%  9.0%  1.5%\n","\u001b[1;36m[libx264 @ 0x559a15540000] \u001b[0mref B L1: 98.2%  1.8%\n","\u001b[1;36m[libx264 @ 0x559a15540000] \u001b[0mkb/s:13838.35\n","\u001b[1;36m[aac @ 0x559a15540f00] \u001b[0mQavg: 64954.551\n","Done.\n","ffmpeg version 3.4.8-0ubuntu0.2 Copyright (c) 2000-2020 the FFmpeg developers\n","  built with gcc 7 (Ubuntu 7.5.0-3ubuntu1~18.04)\n","  configuration: --prefix=/usr --extra-version=0ubuntu0.2 --toolchain=hardened --libdir=/usr/lib/x86_64-linux-gnu --incdir=/usr/include/x86_64-linux-gnu --enable-gpl --disable-stripping --enable-avresample --enable-avisynth --enable-gnutls --enable-ladspa --enable-libass --enable-libbluray --enable-libbs2b --enable-libcaca --enable-libcdio --enable-libflite --enable-libfontconfig --enable-libfreetype --enable-libfribidi --enable-libgme --enable-libgsm --enable-libmp3lame --enable-libmysofa --enable-libopenjpeg --enable-libopenmpt --enable-libopus --enable-libpulse --enable-librubberband --enable-librsvg --enable-libshine --enable-libsnappy --enable-libsoxr --enable-libspeex --enable-libssh --enable-libtheora --enable-libtwolame --enable-libvorbis --enable-libvpx --enable-libwavpack --enable-libwebp --enable-libx265 --enable-libxml2 --enable-libxvid --enable-libzmq --enable-libzvbi --enable-omx --enable-openal --enable-opengl --enable-sdl2 --enable-libdc1394 --enable-libdrm --enable-libiec61883 --enable-chromaprint --enable-frei0r --enable-libopencv --enable-libx264 --enable-shared\n","  libavutil      55. 78.100 / 55. 78.100\n","  libavcodec     57.107.100 / 57.107.100\n","  libavformat    57. 83.100 / 57. 83.100\n","  libavdevice    57. 10.100 / 57. 10.100\n","  libavfilter     6.107.100 /  6.107.100\n","  libavresample   3.  7.  0 /  3.  7.  0\n","  libswscale      4.  8.100 /  4.  8.100\n","  libswresample   2.  9.100 /  2.  9.100\n","  libpostproc    54.  7.100 / 54.  7.100\n","Input #0, image2pipe, from 'pipe:':\n","  Duration: N/A, bitrate: N/A\n","    Stream #0:0: Video: png, gray(pc), 544x720, 24.08 fps, 24.08 tbr, 24.08 tbn, 24.08 tbc\n","Input #1, mov,mp4,m4a,3gp,3g2,mj2, from '/content/drive/My Drive/DeepFaceLab/workspace/data_dst.mp4':\n","  Metadata:\n","    major_brand     : mp42\n","    minor_version   : 0\n","    compatible_brands: mp42isom\n","    creation_time   : 2020-10-24T14:16:31.000000Z\n","    copyright       : \n","    copyright-eng   : \n","  Duration: 00:00:09.36, start: 0.000000, bitrate: 730 kb/s\n","    Stream #1:0(und): Audio: aac (LC) (mp4a / 0x6134706D), 44100 Hz, mono, fltp, 64 kb/s (default)\n","    Metadata:\n","      creation_time   : 2020-10-24T14:16:31.000000Z\n","    Stream #1:1(und): Video: h264 (High) (avc1 / 0x31637661), yuv420p, 544x720, 661 kb/s, 24.08 fps, 24.08 tbr, 90k tbn, 50 tbc (default)\n","    Metadata:\n","      creation_time   : 2020-10-24T14:16:31.000000Z\n","      encoder         : JVT/AVC Coding\n","Stream mapping:\n","  Stream #0:0 -> #0:0 (png (native) -> h264 (libx264))\n","  Stream #1:0 -> #0:1 (aac (native) -> aac (native))\n","\u001b[0;35m[image2pipe @ 0x55c8614a2000] \u001b[0m\u001b[0;33mThread message queue blocking; consider raising the thread_queue_size option (current value: 8)\n","\u001b[0m\u001b[1;36m[libx264 @ 0x55c86146c000] \u001b[0musing cpu capabilities: MMX2 SSE2Fast SSSE3 SSE4.2 AVX FMA3 BMI2 AVX2\n","\u001b[1;36m[libx264 @ 0x55c86146c000] \u001b[0mprofile High 4:4:4 Predictive, level 3.0, 4:2:0 8-bit\n","\u001b[1;36m[libx264 @ 0x55c86146c000] \u001b[0m264 - core 152 r2854 e9a5903 - H.264/MPEG-4 AVC codec - Copyleft 2003-2017 - http://www.videolan.org/x264.html - options: cabac=1 ref=3 deblock=1:0:0 analyse=0x1:0x111 me=hex subme=7 psy=0 mixed_ref=1 me_range=16 chroma_me=1 trellis=0 8x8dct=1 cqm=0 deadzone=21,11 fast_pskip=0 chroma_qp_offset=0 threads=3 lookahead_threads=1 sliced_threads=0 nr=0 decimate=1 interlaced=0 bluray_compat=0 constrained_intra=0 bframes=0 weightp=2 keyint=250 keyint_min=24 scenecut=40 intra_refresh=0 rc=cqp mbtree=0 qp=0\n","Output #0, mp4, to '/content/drive/My Drive/DeepFaceLab/workspace/result_mask.mp4':\n","  Metadata:\n","    encoder         : Lavf57.83.100\n","    Stream #0:0: Video: h264 (libx264) (avc1 / 0x31637661), yuv420p(progressive), 544x720, q=-1--1, 24.08 fps, 18496 tbn, 24.08 tbc\n","    Metadata:\n","      encoder         : Lavc57.107.100 libx264\n","    Side data:\n","      cpb: bitrate max/min/avg: 0/0/0 buffer size: 0 vbv_delay: -1\n","    Stream #0:1(und): Audio: aac (LC) (mp4a / 0x6134706D), 48000 Hz, mono, fltp, 192 kb/s (default)\n","    Metadata:\n","      creation_time   : 2020-10-24T14:16:31.000000Z\n","      encoder         : Lavc57.107.100 aac\n","frame=  227 fps=103 q=-1.0 Lsize=    1231kB time=00:00:09.38 bitrate=1074.4kbits/s speed=4.25x    \n","video:1066kB audio:158kB subtitle:0kB other streams:0kB global headers:0kB muxing overhead: 0.491031%\n","\u001b[1;36m[libx264 @ 0x55c86146c000] \u001b[0mframe I:2     Avg QP: 0.00  size:  4996\n","\u001b[1;36m[libx264 @ 0x55c86146c000] \u001b[0mframe P:225   Avg QP: 0.00  size:  4807\n","\u001b[1;36m[libx264 @ 0x55c86146c000] \u001b[0mmb I  I16..4: 97.0%  0.0%  3.0%\n","\u001b[1;36m[libx264 @ 0x55c86146c000] \u001b[0mmb P  I16..4:  8.2%  0.0%  0.6%  P16..4:  3.8%  1.5%  0.5%  0.0%  0.0%    skip:85.5%\n","\u001b[1;36m[libx264 @ 0x55c86146c000] \u001b[0m8x8 transform intra:0.0% inter:42.5%\n","\u001b[1;36m[libx264 @ 0x55c86146c000] \u001b[0mcoded y,uvDC,uvAC intra: 83.8% 0.0% 0.0% inter: 4.4% 0.0% 0.0%\n","\u001b[1;36m[libx264 @ 0x55c86146c000] \u001b[0mi16 v,h,dc,p: 39%  3% 58%  0%\n","\u001b[1;36m[libx264 @ 0x55c86146c000] \u001b[0mi4 v,h,dc,ddl,ddr,vr,hd,vl,hu: 39% 22% 27%  2%  3%  2%  2%  1%  1%\n","\u001b[1;36m[libx264 @ 0x55c86146c000] \u001b[0mi8c dc,h,v,p: 100%  0%  0%  0%\n","\u001b[1;36m[libx264 @ 0x55c86146c000] \u001b[0mWeighted P-Frames: Y:1.8% UV:0.0%\n","\u001b[1;36m[libx264 @ 0x55c86146c000] \u001b[0mref P L0: 73.5%  0.2% 17.2%  9.1%\n","\u001b[1;36m[libx264 @ 0x55c86146c000] \u001b[0mkb/s:926.42\n","\u001b[1;36m[aac @ 0x55c86146cf00] \u001b[0mQavg: 64954.551\n","Done.\n"],"name":"stdout"}]},{"cell_type":"markdown","metadata":{"id":"cVfp8xbY5ykL"},"source":["#第六步. 继续训练\n","当你第二次开始训练，或者掉线之后继续训练时并不需要执行上面所有的步骤。只需要下面简单的几个步骤。\n","1. 挂载云盘\n","2. 安装依赖\n","3. 开始训练  \n"]},{"cell_type":"code","metadata":{"id":"veL_8afb6WcP"},"source":["#@title 一键运行\n","#挂载谷歌云盘\n","#点击链接授权，复制授权码，填入框框，然后回车。\n","\n","Model = \"SAEHD\" #@param [\"SAEHD\" , \"Quick96\"]\n","\n","\n","from google.colab import drive\n","drive.mount('/content/drive', force_remount=True)\n","\n","\n","# 进入DeepFaceLab_Colab目录\n","%cd /content/drive/My Drive/DeepFaceLab/DeepFaceLab_Colab\n","\n","# 安装Python依赖\n","!pip uninstall -y tensorflow\n","!pip install -r requirements-colab.txt\n","!pip install --upgrade scikit-image\n","#!sudo apt-get install cuda-10-0\n","\n","# 开始训练SAE ，如果是其他模型，修改后面的参数即可，比如H128。\n","#cmd = \"main.py train --training-data-src-dir ../workspace/data_src/aligned --training-data-dst-dir ../workspace/data_dst/aligned --model-dir ../workspace/model --model \"+Model+\" --no-preview\"\n","#!python $cmd "],"execution_count":null,"outputs":[]},{"cell_type":"markdown","metadata":{"id":"siaPGJ1QVacj"},"source":["# 工具\n"]},{"cell_type":"markdown","metadata":{"id":"WGLTllAHYAPJ"},"source":["\n","打包素材。可以加快上传，下载，加载的速度。"]},{"cell_type":"code","metadata":{"id":"fphcCxuh9Qfw","cellView":"form","colab":{"base_uri":"https://localhost:8080/"},"executionInfo":{"status":"ok","timestamp":1617455398314,"user_tz":-540,"elapsed":20683,"user":{"displayName":"王思雨","photoUrl":"https://lh3.googleusercontent.com/a-/AOh14GgdKvMq1fEVrSVYMjY_lkMRC-UmX30N77KQ_6cd=s64","userId":"09556943149130240731"}},"outputId":"140f63ca-4ec2-4e01-a9a4-5555de2df9d4"},"source":["#@title 素材打包\n","\n","target = \"src\" #@param [\"src\",\"dst\"]\n","%cd /content/drive/My Drive/DeepFaceLab/DeepFaceLab_Colab\n","if target==\"src\":\n","  !python main.py util --input-dir ../workspace/data_src/aligned  --pack-faceset\n","else:\n","  !python main.py util --input-dir ../workspace/data_dst/aligned  --pack-faceset\n"," \n","  "],"execution_count":null,"outputs":[{"output_type":"stream","text":["/content/drive/My Drive/DeepFaceLab/DeepFaceLab_Colab\n","Performing faceset packing...\n","\n","/content/drive/My Drive/DeepFaceLab/workspace/data_src/aligned/faceset.pak : file already exists !\n","Press enter to continue and overwrite.\n","\n","Loading samples: 0it [00:00, ?it/s]\n","Processing: 0it [00:00, ?it/s]\n","Packing: 0it [00:00, ?it/s]\n","Deleting files: 0it [00:00, ?it/s]\n","Done.\n"],"name":"stdout"}]},{"cell_type":"code","metadata":{"id":"bC2CyDDx6siX","cellView":"form","colab":{"base_uri":"https://localhost:8080/"},"executionInfo":{"status":"ok","timestamp":1617455404878,"user_tz":-540,"elapsed":2201,"user":{"displayName":"王思雨","photoUrl":"https://lh3.googleusercontent.com/a-/AOh14GgdKvMq1fEVrSVYMjY_lkMRC-UmX30N77KQ_6cd=s64","userId":"09556943149130240731"}},"outputId":"061f8f04-ae55-44d3-b625-97d7db721ecb"},"source":["#@title 素材解包\n","\n","target = \"src\" #@param [\"src\",\"dst\"]\n","%cd /content/drive/My Drive/DeepFaceLab/DeepFaceLab_Colab\n","if target==\"src\":\n","  !python main.py util --input-dir ../workspace/data_src/aligned --unpack-faceset\n","else:\n","  !python main.py util --input-dir ../workspace/data_dst/aligned --unpack-faceset\n"," \n","  "],"execution_count":null,"outputs":[{"output_type":"stream","text":["/content/drive/My Drive/DeepFaceLab/DeepFaceLab_Colab\n","Performing faceset unpacking...\n","\n","Unpacking: 0it [00:00, ?it/s]\n","Done.\n"],"name":"stdout"}]},{"cell_type":"code","metadata":{"id":"NYDWkORS6xum","cellView":"form","colab":{"base_uri":"https://localhost:8080/"},"executionInfo":{"status":"ok","timestamp":1617455428248,"user_tz":-540,"elapsed":20828,"user":{"displayName":"王思雨","photoUrl":"https://lh3.googleusercontent.com/a-/AOh14GgdKvMq1fEVrSVYMjY_lkMRC-UmX30N77KQ_6cd=s64","userId":"09556943149130240731"}},"outputId":"d1306e6f-70fc-4ee9-c447-28c9e8f282d6"},"source":["#@title 素材增强\n","\n","target = \"src\" #@param [\"src\"]\n","%cd /content/drive/My Drive/DeepFaceLab/DeepFaceLab_Colab\n","if target==\"src\":\n","  !python main.py facesettool enhance --input-dir ../workspace/data_src/aligned\n","else:\n","  !python main.py facesettool enhance --input-dir ../workspace/data_dst/aligned\n"," \n","  "],"execution_count":null,"outputs":[{"output_type":"stream","text":["/content/drive/My Drive/DeepFaceLab/DeepFaceLab_Colab\n","\n","Choose one or several GPU idxs (separated by comma).\n","\n","[CPU] : CPU\n","  [0] : Tesla P100-PCIE-16GB\n","\n","[0] Which GPU indexes to choose? : 0\n","0\n","\n","Enhancing faceset in data_src/aligned\n","Processing to data_src/aligned_enhanced\n","Running on Tesla P100-PCIE-16GB.\n","0it [00:00, ?it/s]\n","[y] \n","Merge data_src/aligned_enhanced to data_src/aligned ? ( y/n ) : y\n","Copying processed files to data_src/aligned\n","Removing data_src/aligned_enhanced\n","Done.\n"],"name":"stdout"}]}]}